<svg width="720" height="220" viewBox="0 0 720 220" fill="none" xmlns="http://www.w3.org/2000/svg">
  <rect width="720" height="220" rx="32" fill="#0F172A"/>
  <rect x="36" y="36" width="148" height="148" rx="28" fill="url(#paint0_linear)"/>
  <path d="M120.346 76.307c-4.268-4.269-11.191-4.269-15.459 0l-8.205 8.205 14.657 14.657 8.205-8.205c4.269-4.268 4.269-11.191 0-15.457ZM92.92 88.623 75 106.542V145h38.457l17.921-17.92-38.458-38.457Z" fill="white"/>
  <path d="M269.44 81.488c18.4 0 31.76 10.72 35.84 28.8h-22.88c-2.72-7.2-7.68-10.56-14.08-10.56-10.08 0-17.04 7.52-17.04 19.68 0 12.16 6.96 19.68 17.04 19.68 6.4 0 11.36-3.36 14.08-10.56h22.88c-4.08 18.08-17.44 28.64-35.84 28.64-22.24 0-37.92-15.84-37.92-37.76 0-21.92 15.68-37.92 37.92-37.92Z" fill="white"/>
  <path d="M349.115 105.648c15.2 0 26.08 11.2 26.08 29.6V156h-21.12v-17.92c0-8.96-4.96-13.92-12.8-13.92-7.84 0-12.8 4.96-12.8 13.92V156h-21.28V82.64h21.28v25.44c4.32-5.76 11.84-9.12 20.64-9.12Z" fill="white"/>
  <path d="M408.721 156h-21.28v-49.44h21.28V156Zm-10.72-54.56c-7.52 0-12.48-4.48-12.48-10.88 0-6.56 4.96-11.04 12.48-11.04 7.36 0 12.32 4.48 12.32 11.04 0 6.4-4.96 10.88-12.32 10.88Z" fill="white"/>
  <path d="M439.271 114.048V156h-21.28v-41.952h-8.32v-17.488h8.32v-12.064h21.28V96.56h13.76v17.488h-13.76Z" fill="white"/>
  <path d="M480.326 157.12c-14.56 0-25.12-7.84-25.92-18.08h21.12c.32 3.84 3.84 6.4 8.48 6.4 4.32 0 6.72-1.92 6.72-4.48 0-8.96-33.92-2.56-33.92-25.76 0-10.72 9.12-19.52 25.44-19.52 16 0 25.12 8.96 26.56 17.92h-19.68c-.64-3.68-3.36-6.08-8-6.08-3.84 0-6.08 1.44-6.08 4.32 0 8.96 33.6 2.72 34.08 26.24 0 10.88-9.76 19.04-28.8 19.04Z" fill="#A78BFA"/>
  <path d="M544.276 96.56c14.88 0 24.96 7.68 28.16 21.12h-22.56c-1.6-4.48-4.96-7.04-9.92-7.04-6.88 0-11.52 5.28-11.52 16.48 0 11.2 4.64 16.48 11.52 16.48 4.96 0 8.16-2.4 9.92-7.04h22.56c-3.2 13.12-13.28 21.12-28.16 21.12-17.44 0-29.28-11.68-29.28-30.56s11.84-30.56 29.28-30.56Z" fill="#F8FAFC"/>
  <defs>
    <linearGradient id="paint0_linear" x1="36" y1="36" x2="184" y2="184" gradientUnits="userSpaceOnUse">
      <stop stop-color="#6366F1"/>
      <stop offset="1" stop-color="#8B5CF6"/>
    </linearGradient>
  </defs>
</svg>
